<svg xmlns="http://www.w3.org/2000/svg" xmlns:xlink="http://www.w3.org/1999/xlink" width="500" zoomAndPan="magnify" viewBox="0 0 375 347.249998" height="463" preserveAspectRatio="xMidYMid meet" version="1.0"><path fill="#004aad" d="M 18.433594 214.210938 C 18.433594 214.210938 19.207031 213.917969 20.449219 213.3125 C 21.683594 212.703125 23.363281 211.761719 25.234375 210.507812 C 26.175781 209.878906 27.160156 209.171875 28.160156 208.390625 C 29.179688 207.621094 30.199219 206.769531 31.226562 205.863281 C 32.261719 204.964844 33.269531 203.984375 34.300781 202.984375 C 35.289062 201.953125 36.308594 200.921875 37.261719 199.832031 C 38.226562 198.75 39.152344 197.636719 40.027344 196.507812 C 40.910156 195.390625 41.699219 194.21875 42.46875 193.09375 C 43.210938 191.941406 43.90625 190.804688 44.515625 189.691406 C 45.125 188.578125 45.667969 187.488281 46.140625 186.464844 C 47.082031 184.40625 47.707031 182.558594 48.082031 181.210938 C 48.449219 179.863281 48.582031 179.019531 48.582031 179.019531 C 49.660156 172.066406 56.171875 167.308594 63.121094 168.386719 C 70.074219 169.464844 74.835938 175.972656 73.757812 182.925781 C 72.996094 187.851562 69.480469 191.6875 65.03125 193.113281 C 65.03125 193.113281 64.21875 193.367188 62.941406 193.945312 C 61.664062 194.519531 59.941406 195.425781 58.050781 196.667969 C 57.109375 197.289062 56.121094 197.992188 55.113281 198.765625 C 54.105469 199.542969 53.089844 200.398438 52.070312 201.316406 C 51.070312 202.246094 50.035156 203.207031 49.058594 204.25 C 48.082031 205.289062 47.125 206.371094 46.199219 207.488281 C 45.273438 208.601562 44.40625 209.769531 43.542969 210.902344 C 42.714844 212.074219 41.902344 213.21875 41.171875 214.382812 C 40.433594 215.539062 39.746094 216.675781 39.140625 217.800781 C 38.519531 218.90625 37.976562 219.992188 37.503906 221.015625 C 36.542969 223.058594 35.875 224.863281 35.460938 226.175781 C 35.050781 227.492188 34.886719 228.304688 34.886719 228.304688 C 33.488281 234.984375 26.9375 239.265625 20.261719 237.867188 C 13.582031 236.46875 9.300781 229.921875 10.695312 223.246094 C 11.585938 218.980469 14.652344 215.671875 18.433594 214.210938 " fill-opacity="1" fill-rule="nonzero"/><path fill="#004aad" d="M 119.152344 108.730469 C 119.152344 108.730469 119.925781 108.4375 121.167969 107.832031 C 122.398438 107.222656 124.082031 106.28125 125.953125 105.023438 C 126.890625 104.398438 127.878906 103.691406 128.878906 102.910156 C 129.894531 102.140625 130.910156 101.285156 131.941406 100.378906 C 132.980469 99.484375 133.988281 98.5 135.019531 97.503906 C 136.007812 96.476562 137.027344 95.441406 137.980469 94.351562 C 138.941406 93.269531 139.867188 92.15625 140.746094 91.027344 C 141.625 89.90625 142.417969 88.734375 143.1875 87.605469 C 143.929688 86.453125 144.625 85.324219 145.234375 84.210938 C 145.84375 83.09375 146.386719 82.007812 146.859375 80.980469 C 147.796875 78.921875 148.425781 77.082031 148.800781 75.730469 C 149.167969 74.382812 149.300781 73.539062 149.300781 73.539062 C 150.375 66.582031 156.890625 61.820312 163.839844 62.898438 C 170.792969 63.976562 175.554688 70.492188 174.476562 77.445312 C 173.714844 82.375 170.199219 86.203125 165.746094 87.632812 C 165.746094 87.632812 164.941406 87.886719 163.660156 88.464844 C 162.382812 89.039062 160.65625 89.941406 158.769531 91.1875 C 157.824219 91.808594 156.835938 92.511719 155.824219 93.285156 C 154.820312 94.0625 153.808594 94.917969 152.78125 95.828125 C 151.789062 96.765625 150.753906 97.726562 149.78125 98.769531 C 148.800781 99.804688 147.839844 100.890625 146.917969 102.007812 C 145.992188 103.121094 145.125 104.285156 144.261719 105.421875 C 143.433594 106.589844 142.621094 107.738281 141.890625 108.902344 C 141.152344 110.058594 140.464844 111.195312 139.859375 112.320312 C 139.238281 113.421875 138.695312 114.511719 138.21875 115.535156 C 137.261719 117.574219 136.59375 119.378906 136.179688 120.695312 C 135.773438 122.015625 135.597656 122.820312 135.597656 122.820312 C 134.207031 129.503906 127.65625 133.78125 120.980469 132.382812 C 114.300781 130.988281 110.015625 124.441406 111.414062 117.761719 C 112.304688 113.5 115.371094 110.1875 119.152344 108.730469 " fill-opacity="1" fill-rule="nonzero"/><path fill="#004aad" d="M 46.859375 71.382812 C 46.859375 71.382812 46.988281 71.789062 47.269531 72.394531 C 47.554688 73.003906 47.988281 73.824219 48.585938 74.683594 C 49.1875 75.542969 49.945312 76.453125 50.828125 77.316406 C 51.710938 78.183594 52.71875 78.996094 53.796875 79.699219 C 54.859375 80.421875 56.007812 81.015625 57.15625 81.457031 C 58.300781 81.894531 59.453125 82.175781 60.5 82.324219 C 61.546875 82.46875 62.488281 82.480469 63.1875 82.421875 C 63.871094 82.386719 64.308594 82.292969 64.308594 82.292969 C 69.902344 81.0625 75.4375 84.597656 76.667969 90.195312 C 77.898438 95.789062 74.359375 101.320312 68.765625 102.550781 C 63.246094 103.765625 57.78125 100.324219 56.457031 94.855469 C 56.457031 94.855469 56.351562 94.417969 56.082031 93.785156 C 55.824219 93.132812 55.402344 92.292969 54.816406 91.417969 C 54.226562 90.535156 53.46875 89.625 52.570312 88.789062 C 51.671875 87.953125 50.636719 87.175781 49.519531 86.539062 C 48.414062 85.875 47.242188 85.324219 46.082031 84.914062 C 44.917969 84.496094 43.765625 84.214844 42.734375 84.050781 C 41.699219 83.886719 40.769531 83.855469 40.09375 83.863281 C 39.425781 83.878906 39.007812 83.945312 39.007812 83.945312 C 33.667969 84.765625 28.675781 81.101562 27.855469 75.765625 C 27.03125 70.421875 30.695312 65.429688 36.03125 64.613281 C 40.886719 63.863281 45.453125 66.824219 46.859375 71.382812 " fill-opacity="1" fill-rule="nonzero"/><path fill="#004aad" d="M 172.660156 279.394531 C 172.660156 279.394531 172.441406 279.757812 172.191406 280.378906 C 171.929688 281.003906 171.621094 281.882812 171.398438 282.898438 C 171.171875 283.929688 171.015625 285.101562 170.980469 286.332031 C 170.941406 287.566406 171.023438 288.863281 171.242188 290.132812 C 171.429688 291.402344 171.773438 292.648438 172.222656 293.792969 C 172.679688 294.933594 173.25 295.972656 173.855469 296.839844 C 174.457031 297.707031 175.082031 298.40625 175.597656 298.882812 C 176.085938 299.363281 176.457031 299.621094 176.457031 299.621094 C 181.152344 302.898438 182.300781 309.371094 179.019531 314.0625 C 175.738281 318.757812 169.273438 319.902344 164.582031 316.621094 C 159.941406 313.386719 158.769531 307.035156 161.898438 302.359375 C 161.898438 302.359375 162.148438 301.984375 162.429688 301.359375 C 162.738281 300.730469 163.070312 299.847656 163.316406 298.820312 C 163.5625 297.789062 163.714844 296.617188 163.726562 295.386719 C 163.734375 294.160156 163.601562 292.875 163.316406 291.621094 C 163.054688 290.359375 162.664062 289.125 162.175781 287.992188 C 161.695312 286.855469 161.125 285.816406 160.542969 284.945312 C 159.960938 284.066406 159.355469 283.367188 158.894531 282.878906 C 158.429688 282.394531 158.09375 282.128906 158.09375 282.128906 C 153.875 278.757812 153.1875 272.605469 156.554688 268.386719 C 159.921875 264.164062 166.078125 263.472656 170.300781 266.84375 C 174.136719 269.90625 175.054688 275.273438 172.660156 279.394531 " fill-opacity="1" fill-rule="nonzero"/><path fill="#004aad" d="M 132.964844 37.433594 C 132.964844 37.433594 133.46875 37.296875 134.253906 36.96875 C 135.042969 36.640625 136.132812 36.136719 137.324219 35.425781 C 138.515625 34.722656 139.824219 33.820312 141.128906 32.765625 C 142.4375 31.722656 143.734375 30.515625 144.933594 29.222656 C 146.15625 27.945312 147.257812 26.5625 148.199219 25.179688 C 149.128906 23.792969 149.886719 22.398438 150.453125 21.128906 C 151.023438 19.855469 151.40625 18.710938 151.609375 17.851562 C 151.832031 17.019531 151.898438 16.480469 151.898438 16.480469 C 152.472656 11.488281 156.988281 7.902344 161.980469 8.480469 C 166.972656 9.054688 170.558594 13.570312 169.980469 18.5625 C 169.527344 22.527344 166.578125 25.597656 162.890625 26.410156 C 162.890625 26.410156 162.359375 26.527344 161.550781 26.839844 C 160.726562 27.128906 159.621094 27.621094 158.414062 28.316406 C 157.210938 29.011719 155.894531 29.90625 154.609375 30.976562 C 153.328125 32.046875 152.0625 33.285156 150.921875 34.628906 C 149.753906 35.953125 148.6875 37.367188 147.777344 38.773438 C 146.859375 40.175781 146.097656 41.570312 145.519531 42.832031 C 144.933594 44.085938 144.539062 45.21875 144.292969 46.035156 C 144.046875 46.855469 143.960938 47.371094 143.953125 47.371094 C 143.121094 52.128906 138.589844 55.308594 133.828125 54.472656 C 129.070312 53.632812 125.890625 49.097656 126.726562 44.34375 C 127.328125 40.925781 129.839844 38.324219 132.964844 37.433594 " fill-opacity="1" fill-rule="nonzero"/><path fill="#004aad" d="M 176.183594 170.894531 C 176.183594 170.894531 175.722656 171.945312 175.054688 173.800781 C 174.398438 175.652344 173.566406 178.304688 172.761719 181.507812 C 172.355469 183.101562 171.949219 184.839844 171.585938 186.675781 C 171.199219 188.511719 170.859375 190.453125 170.539062 192.460938 C 170.210938 194.472656 169.953125 196.554688 169.6875 198.664062 C 169.46875 200.789062 169.234375 202.933594 169.09375 205.089844 C 168.90625 207.246094 168.824219 209.40625 168.746094 211.53125 C 168.6875 213.660156 168.6875 215.757812 168.722656 217.789062 C 168.773438 219.824219 168.867188 221.792969 169.007812 223.660156 C 169.148438 225.53125 169.335938 227.300781 169.542969 228.9375 C 169.964844 232.210938 170.519531 234.953125 170.992188 236.878906 C 171.46875 238.804688 171.847656 239.910156 171.847656 239.910156 C 173.949219 246.035156 170.691406 252.703125 164.566406 254.804688 C 158.441406 256.90625 151.769531 253.648438 149.667969 247.523438 C 148.617188 244.464844 148.917969 241.246094 150.234375 238.550781 C 150.234375 238.550781 150.746094 237.5 151.464844 235.652344 C 152.171875 233.800781 153.0625 231.152344 153.890625 227.957031 C 154.304688 226.355469 154.707031 224.625 155.085938 222.785156 C 155.457031 220.949219 155.796875 219.011719 156.105469 216.996094 C 156.390625 214.988281 156.65625 212.90625 156.859375 210.789062 C 157.050781 208.664062 157.234375 206.515625 157.324219 204.351562 C 157.457031 202.195312 157.488281 200.035156 157.539062 197.902344 C 157.539062 195.769531 157.542969 193.671875 157.46875 191.640625 C 157.40625 189.605469 157.308594 187.636719 157.15625 185.769531 C 157.023438 183.898438 156.839844 182.128906 156.636719 180.492188 C 156.238281 177.21875 155.746094 174.480469 155.328125 172.558594 C 154.894531 170.640625 154.566406 169.539062 154.566406 169.539062 C 152.75 163.425781 156.222656 157 162.328125 155.179688 C 168.433594 153.359375 174.867188 156.835938 176.6875 162.941406 C 177.5 165.671875 177.25 168.480469 176.183594 170.894531 " fill-opacity="1" fill-rule="nonzero"/><path fill="#004aad" d="M 68.257812 215.601562 C 68.257812 215.601562 69.046875 215.085938 70.300781 214.113281 C 71.546875 213.132812 73.234375 211.675781 75.097656 209.824219 C 76.03125 208.898438 77.011719 207.878906 77.996094 206.765625 C 79 205.664062 80.007812 204.464844 81.011719 203.210938 C 82.03125 201.964844 83.007812 200.628906 84.007812 199.277344 C 84.964844 197.894531 85.953125 196.5 86.871094 195.0625 C 87.789062 193.628906 88.675781 192.171875 89.5 190.710938 C 90.335938 189.25 91.070312 187.765625 91.789062 186.328125 C 92.476562 184.875 93.113281 183.453125 93.667969 182.074219 C 94.21875 180.691406 94.703125 179.359375 95.113281 178.109375 C 95.933594 175.609375 96.445312 173.417969 96.730469 171.835938 C 97.007812 170.25 97.082031 169.296875 97.082031 169.296875 C 97.570312 162.550781 103.429688 157.484375 110.167969 157.972656 C 116.910156 158.460938 121.980469 164.324219 121.488281 171.0625 C 121.191406 175.210938 118.789062 178.765625 115.472656 180.738281 C 115.472656 180.738281 114.640625 181.226562 113.339844 182.175781 C 112.050781 183.125 110.3125 184.554688 108.429688 186.394531 C 107.488281 187.316406 106.503906 188.335938 105.511719 189.445312 C 104.515625 190.550781 103.519531 191.75 102.515625 193.007812 C 101.546875 194.285156 100.539062 195.601562 99.601562 196.996094 C 98.65625 198.378906 97.734375 199.816406 96.859375 201.28125 C 95.972656 202.738281 95.160156 204.234375 94.34375 205.703125 C 93.570312 207.199219 92.800781 208.671875 92.132812 210.132812 C 91.449219 211.589844 90.816406 213.019531 90.277344 214.40625 C 89.710938 215.78125 89.234375 217.109375 88.8125 218.355469 C 87.972656 220.847656 87.410156 223.007812 87.082031 224.554688 C 86.761719 226.117188 86.648438 227.046875 86.648438 227.046875 C 85.855469 233.597656 79.902344 238.265625 73.347656 237.480469 C 66.796875 236.6875 62.128906 230.734375 62.921875 224.179688 C 63.359375 220.550781 65.425781 217.46875 68.257812 215.601562 " fill-opacity="1" fill-rule="nonzero"/><path fill="#004aad" d="M 58.070312 250.5625 C 58.070312 250.5625 58.289062 251.355469 58.78125 252.640625 C 59.277344 253.917969 60.066406 255.675781 61.148438 257.640625 C 61.691406 258.625 62.296875 259.675781 62.984375 260.734375 C 63.660156 261.8125 64.421875 262.894531 65.230469 264 C 66.027344 265.105469 66.914062 266.195312 67.816406 267.300781 C 68.75 268.375 69.6875 269.476562 70.683594 270.523438 C 71.675781 271.570312 72.699219 272.589844 73.742188 273.554688 C 74.777344 274.53125 75.871094 275.417969 76.921875 276.277344 C 78.003906 277.113281 79.070312 277.898438 80.125 278.605469 C 81.179688 279.3125 82.207031 279.941406 83.1875 280.496094 C 85.144531 281.605469 86.921875 282.386719 88.234375 282.875 C 89.542969 283.363281 90.371094 283.566406 90.371094 283.566406 C 97.210938 285.238281 101.398438 292.140625 99.71875 298.980469 C 98.046875 305.824219 91.144531 310.011719 84.304688 308.335938 C 79.441406 307.144531 75.914062 303.289062 74.890625 298.714844 C 74.890625 298.714844 74.703125 297.882812 74.25 296.5625 C 73.789062 295.242188 73.042969 293.453125 71.980469 291.46875 C 71.445312 290.476562 70.832031 289.429688 70.152344 288.359375 C 69.46875 287.296875 68.707031 286.214844 67.894531 285.117188 C 67.050781 284.046875 66.191406 282.933594 65.238281 281.875 C 64.292969 280.8125 63.300781 279.765625 62.277344 278.753906 C 61.25 277.734375 60.167969 276.773438 59.121094 275.816406 C 58.027344 274.894531 56.957031 273.984375 55.871094 273.15625 C 54.78125 272.324219 53.714844 271.542969 52.65625 270.847656 C 51.605469 270.132812 50.578125 269.503906 49.601562 268.941406 C 47.65625 267.8125 45.917969 266.992188 44.652344 266.464844 C 43.378906 265.949219 42.589844 265.710938 42.589844 265.710938 C 36.050781 263.742188 32.34375 256.84375 34.3125 250.304688 C 36.285156 243.765625 43.183594 240.058594 49.71875 242.035156 C 53.90625 243.292969 56.949219 246.652344 58.070312 250.5625 " fill-opacity="1" fill-rule="nonzero"/><path fill="#004aad" d="M 101.371094 260.429688 C 101.371094 260.429688 101.964844 259.777344 102.871094 258.613281 C 103.761719 257.433594 104.941406 255.730469 106.160156 253.628906 C 106.777344 252.582031 107.40625 251.433594 108.015625 250.207031 C 108.640625 248.980469 109.242188 247.671875 109.828125 246.3125 C 110.425781 244.953125 110.960938 243.519531 111.511719 242.074219 C 112.015625 240.609375 112.535156 239.128906 112.984375 237.621094 C 113.4375 236.121094 113.847656 234.605469 114.199219 233.101562 C 114.566406 231.59375 114.828125 230.09375 115.082031 228.636719 C 115.308594 227.167969 115.492188 225.742188 115.613281 224.378906 C 115.726562 223.007812 115.792969 221.699219 115.8125 220.484375 C 115.855469 218.046875 115.691406 215.960938 115.5 214.480469 C 115.300781 212.992188 115.082031 212.117188 115.082031 212.117188 C 113.429688 205.429688 117.503906 198.664062 124.191406 197.011719 C 130.878906 195.355469 137.644531 199.4375 139.296875 206.125 C 140.394531 210.5625 138.957031 215.042969 135.917969 218.03125 C 135.917969 218.03125 135.273438 218.664062 134.324219 219.824219 C 133.378906 220.980469 132.148438 222.667969 130.902344 224.765625 C 130.28125 225.808594 129.652344 226.957031 129.03125 228.183594 C 128.410156 229.410156 127.820312 230.71875 127.242188 232.089844 C 126.695312 233.460938 126.125 234.878906 125.648438 236.347656 C 125.15625 237.8125 124.707031 239.320312 124.304688 240.835938 C 123.894531 242.347656 123.566406 243.890625 123.222656 245.398438 C 122.925781 246.917969 122.636719 248.414062 122.429688 249.886719 C 122.210938 251.355469 122.035156 252.78125 121.925781 254.15625 C 121.792969 255.519531 121.730469 256.824219 121.699219 258.039062 C 121.636719 260.46875 121.742188 262.535156 121.886719 264.007812 C 122.039062 265.476562 122.207031 266.34375 122.207031 266.34375 C 123.492188 272.921875 119.195312 279.296875 112.609375 280.582031 C 106.03125 281.863281 99.65625 277.566406 98.375 270.984375 C 97.613281 267.066406 98.875 263.167969 101.371094 260.429688 " fill-opacity="1" fill-rule="nonzero"/><path fill="#004aad" d="M 122.515625 310.339844 C 122.515625 310.339844 122.769531 310.789062 123.253906 311.480469 C 123.746094 312.175781 124.472656 313.132812 125.417969 314.160156 C 126.359375 315.199219 127.507812 316.324219 128.808594 317.429688 C 130.105469 318.542969 131.546875 319.632812 133.046875 320.621094 C 133.792969 321.132812 134.566406 321.59375 135.332031 322.046875 C 136.101562 322.496094 136.875 322.902344 137.644531 323.273438 C 139.175781 324.019531 140.675781 324.597656 142.015625 325.011719 C 143.355469 325.429688 144.53125 325.683594 145.398438 325.800781 C 146.246094 325.9375 146.769531 325.953125 146.769531 325.953125 C 150.957031 326.050781 154.265625 329.523438 154.167969 333.707031 C 154.066406 337.886719 150.597656 341.203125 146.410156 341.097656 C 143.476562 341.03125 140.972656 339.296875 139.769531 336.828125 C 139.769531 336.828125 139.539062 336.351562 139.0625 335.636719 C 138.597656 334.90625 137.882812 333.933594 136.949219 332.886719 C 136.011719 331.835938 134.867188 330.710938 133.554688 329.621094 C 132.894531 329.085938 132.207031 328.542969 131.484375 328.03125 C 130.753906 327.523438 130.011719 327.007812 129.238281 326.542969 C 127.710938 325.589844 126.125 324.722656 124.574219 324.007812 C 123.027344 323.285156 121.527344 322.703125 120.199219 322.273438 C 118.867188 321.84375 117.703125 321.570312 116.863281 321.417969 C 116.027344 321.257812 115.519531 321.214844 115.519531 321.214844 C 111.476562 320.894531 108.460938 317.359375 108.78125 313.320312 C 109.101562 309.277344 112.636719 306.261719 116.675781 306.582031 C 119.207031 306.78125 121.359375 308.28125 122.515625 310.339844 " fill-opacity="1" fill-rule="nonzero"/><path fill="#004aad" d="M 19.101562 125.464844 C 19.101562 125.464844 19.992188 125.898438 21.558594 126.507812 C 23.121094 127.109375 25.363281 127.863281 28.0625 128.574219 C 29.410156 128.925781 30.871094 129.28125 32.417969 129.589844 C 33.964844 129.921875 35.605469 130.207031 37.292969 130.464844 C 38.988281 130.734375 40.738281 130.929688 42.515625 131.132812 C 44.300781 131.285156 46.109375 131.457031 47.921875 131.53125 C 49.734375 131.648438 51.550781 131.675781 53.339844 131.683594 C 55.125 131.683594 56.882812 131.621094 58.59375 131.527344 C 60.300781 131.410156 61.949219 131.261719 63.519531 131.0625 C 65.09375 130.863281 66.574219 130.625 67.949219 130.371094 C 70.691406 129.847656 72.984375 129.21875 74.59375 128.683594 C 76.203125 128.148438 77.128906 127.734375 77.128906 127.734375 C 83.226562 125.015625 90.367188 127.75 93.089844 133.84375 C 95.804688 139.9375 93.074219 147.082031 86.976562 149.796875 C 83.429688 151.382812 79.464844 151.082031 76.285156 149.378906 C 76.285156 149.378906 75.398438 148.898438 73.832031 148.238281 C 72.265625 147.582031 70.03125 146.769531 67.332031 146.042969 C 65.988281 145.675781 64.527344 145.324219 62.976562 145.003906 C 61.429688 144.683594 59.792969 144.40625 58.101562 144.15625 C 56.40625 143.929688 54.652344 143.726562 52.871094 143.585938 C 51.089844 143.460938 49.277344 143.339844 47.460938 143.3125 C 45.648438 143.25 43.832031 143.28125 42.042969 143.292969 C 40.253906 143.351562 38.488281 143.414062 36.78125 143.550781 C 35.078125 143.679688 33.421875 143.832031 31.851562 144.039062 C 30.285156 144.230469 28.800781 144.464844 27.429688 144.71875 C 24.6875 145.210938 22.394531 145.785156 20.785156 146.261719 C 19.179688 146.75 18.253906 147.109375 18.253906 147.109375 C 12.175781 149.496094 5.3125 146.5 2.929688 140.417969 C 0.542969 134.34375 3.542969 127.480469 9.617188 125.097656 C 12.800781 123.84375 16.246094 124.089844 19.101562 125.464844 " fill-opacity="1" fill-rule="nonzero"/><path fill="#004aad" d="M 87.742188 96.199219 C 87.742188 96.199219 88.140625 95.25 88.691406 93.585938 C 89.226562 91.921875 89.894531 89.542969 90.492188 86.691406 C 90.796875 85.261719 91.09375 83.722656 91.34375 82.082031 C 91.617188 80.453125 91.832031 78.730469 92.023438 76.949219 C 92.226562 75.160156 92.355469 73.320312 92.488281 71.449219 C 92.570312 69.578125 92.675781 67.671875 92.679688 65.769531 C 92.722656 63.871094 92.675781 61.96875 92.621094 60.09375 C 92.546875 58.222656 92.414062 56.382812 92.257812 54.597656 C 92.070312 52.816406 91.855469 51.09375 91.601562 49.457031 C 91.335938 47.824219 91.042969 46.277344 90.730469 44.851562 C 90.105469 42 89.378906 39.621094 88.789062 37.957031 C 88.1875 36.292969 87.742188 35.34375 87.742188 35.34375 C 84.917969 29.359375 87.484375 22.226562 93.46875 19.402344 C 99.449219 16.582031 106.582031 19.148438 109.398438 25.125 C 110.980469 28.472656 110.851562 32.230469 109.398438 35.34375 C 109.398438 35.34375 108.957031 36.292969 108.355469 37.957031 C 107.761719 39.621094 107.042969 42 106.417969 44.851562 C 106.101562 46.277344 105.8125 47.824219 105.546875 49.457031 C 105.289062 51.09375 105.078125 52.816406 104.890625 54.597656 C 104.734375 56.382812 104.601562 58.222656 104.527344 60.09375 C 104.472656 61.96875 104.421875 63.871094 104.464844 65.769531 C 104.472656 67.671875 104.574219 69.578125 104.660156 71.449219 C 104.792969 73.320312 104.917969 75.160156 105.121094 76.949219 C 105.3125 78.730469 105.53125 80.453125 105.800781 82.082031 C 106.050781 83.722656 106.347656 85.261719 106.652344 86.691406 C 107.253906 89.542969 107.917969 91.921875 108.453125 93.585938 C 109.007812 95.25 109.40625 96.199219 109.40625 96.199219 C 111.90625 102.179688 109.082031 109.058594 103.097656 111.5625 C 97.121094 114.058594 90.242188 111.234375 87.742188 105.253906 C 86.484375 102.25 86.589844 98.992188 87.742188 96.199219 " fill-opacity="1" fill-rule="nonzero"/><path fill="#004aad" d="M 39.632812 170.21875 C 39.632812 177.378906 33.828125 183.191406 26.65625 183.191406 C 19.492188 183.191406 13.683594 177.378906 13.683594 170.21875 C 13.683594 163.046875 19.492188 157.238281 26.65625 157.238281 C 33.828125 157.238281 39.632812 163.046875 39.632812 170.21875 " fill-opacity="1" fill-rule="nonzero"/><path fill="#004aad" d="M 138.476562 13.007812 C 138.476562 20.171875 132.664062 25.980469 125.5 25.980469 C 118.332031 25.980469 112.527344 20.171875 112.527344 13.007812 C 112.527344 5.839844 118.332031 0.03125 125.5 0.03125 C 132.664062 0.03125 138.476562 5.839844 138.476562 13.007812 " fill-opacity="1" fill-rule="nonzero"/><path fill="#004aad" d="M 51.375 106.800781 C 51.375 113.964844 45.566406 119.773438 38.402344 119.773438 C 31.238281 119.773438 25.425781 113.964844 25.425781 106.800781 C 25.425781 99.636719 31.238281 93.824219 38.402344 93.824219 C 45.566406 93.824219 51.375 99.636719 51.375 106.800781 " fill-opacity="1" fill-rule="nonzero"/><path fill="#004aad" d="M 147.257812 288.015625 C 147.257812 295.179688 141.449219 300.988281 134.285156 300.988281 C 127.117188 300.988281 121.3125 295.179688 121.3125 288.015625 C 121.3125 280.847656 127.117188 275.042969 134.285156 275.042969 C 141.449219 275.042969 147.257812 280.847656 147.257812 288.015625 " fill-opacity="1" fill-rule="nonzero"/><path fill="#004aad" d="M 176.179688 119.773438 C 176.179688 126.941406 170.375 132.746094 163.207031 132.746094 C 156.042969 132.746094 150.234375 126.941406 150.234375 119.773438 C 150.234375 112.609375 156.042969 106.800781 163.207031 106.800781 C 170.375 106.800781 176.179688 112.609375 176.179688 119.773438 " fill-opacity="1" fill-rule="nonzero"/><path fill="#004aad" d="M 95.503906 258.746094 C 95.503906 262.785156 92.226562 266.066406 88.183594 266.066406 C 84.148438 266.066406 80.871094 262.785156 80.871094 258.746094 C 80.871094 254.707031 84.148438 251.429688 88.183594 251.429688 C 92.226562 251.429688 95.503906 254.707031 95.503906 258.746094 " fill-opacity="1" fill-rule="nonzero"/><path fill="#004aad" d="M 18.699219 203.664062 C 18.699219 207.699219 15.425781 210.980469 11.382812 210.980469 C 7.347656 210.980469 4.066406 207.699219 4.066406 203.664062 C 4.066406 199.621094 7.347656 196.347656 11.382812 196.347656 C 15.425781 196.347656 18.699219 199.621094 18.699219 203.664062 " fill-opacity="1" fill-rule="nonzero"/><path fill="#004aad" d="M 57.648438 288.015625 C 57.648438 292.054688 54.367188 295.332031 50.324219 295.332031 C 46.289062 295.332031 43.007812 292.054688 43.007812 288.015625 C 43.007812 283.972656 46.289062 280.699219 50.324219 280.699219 C 54.367188 280.699219 57.648438 283.972656 57.648438 288.015625 " fill-opacity="1" fill-rule="nonzero"/><path fill="#004aad" d="M 107.820312 227.355469 C 107.820312 231.394531 104.546875 234.671875 100.503906 234.671875 C 96.464844 234.671875 93.1875 231.394531 93.1875 227.355469 C 93.1875 223.3125 96.464844 220.035156 100.503906 220.035156 C 104.546875 220.035156 107.820312 223.3125 107.820312 227.355469 " fill-opacity="1" fill-rule="nonzero"/><path fill="#004aad" d="M 73.796875 119.773438 C 73.796875 123.816406 70.523438 127.089844 66.480469 127.089844 C 62.4375 127.089844 59.164062 123.816406 59.164062 119.773438 C 59.164062 115.730469 62.4375 112.457031 66.480469 112.457031 C 70.523438 112.457031 73.796875 115.730469 73.796875 119.773438 " fill-opacity="1" fill-rule="nonzero"/><path fill="#004aad" d="M 73.796875 65.464844 C 73.796875 69.507812 70.523438 72.78125 66.480469 72.78125 C 62.4375 72.78125 59.164062 69.507812 59.164062 65.464844 C 59.164062 61.421875 62.4375 58.148438 66.480469 58.148438 C 70.523438 58.148438 73.796875 61.421875 73.796875 65.464844 " fill-opacity="1" fill-rule="nonzero"/><path fill="#004aad" d="M 76.042969 40.128906 C 76.042969 44.164062 72.769531 47.445312 68.726562 47.445312 C 64.6875 47.445312 61.410156 44.164062 61.410156 40.128906 C 61.410156 36.085938 64.6875 32.804688 68.726562 32.804688 C 72.769531 32.804688 76.042969 36.085938 76.042969 40.128906 " fill-opacity="1" fill-rule="nonzero"/><path fill="#004aad" d="M 134.691406 80.585938 C 134.691406 84.628906 131.417969 87.902344 127.375 87.902344 C 123.335938 87.902344 120.058594 84.628906 120.058594 80.585938 C 120.058594 76.542969 123.335938 73.269531 127.375 73.269531 C 131.417969 73.269531 134.691406 76.542969 134.691406 80.585938 " fill-opacity="1" fill-rule="nonzero"/><path fill="#004aad" d="M 125.964844 60.636719 C 125.964844 64.671875 122.683594 67.945312 118.640625 67.945312 C 114.605469 67.945312 111.332031 64.671875 111.332031 60.636719 C 111.332031 56.59375 114.605469 53.3125 118.640625 53.3125 C 122.683594 53.3125 125.964844 56.59375 125.964844 60.636719 " fill-opacity="1" fill-rule="nonzero"/><path fill="#004aad" d="M 105.890625 326.363281 C 105.890625 330.402344 102.617188 333.683594 98.574219 333.683594 C 94.53125 333.683594 91.257812 330.402344 91.257812 326.363281 C 91.257812 322.324219 94.53125 319.046875 98.574219 319.046875 C 102.617188 319.046875 105.890625 322.324219 105.890625 326.363281 " fill-opacity="1" fill-rule="nonzero"/><path fill="#004aad" d="M 148.917969 175.015625 C 148.917969 179.058594 145.636719 182.335938 141.601562 182.335938 C 137.558594 182.335938 134.285156 179.058594 134.285156 175.015625 C 134.285156 170.976562 137.558594 167.699219 141.601562 167.699219 C 145.636719 167.699219 148.917969 170.976562 148.917969 175.015625 " fill-opacity="1" fill-rule="nonzero"/><path fill="#004aad" d="M 141.597656 149.050781 C 141.597656 153.09375 138.320312 156.367188 134.285156 156.367188 C 130.242188 156.367188 126.96875 153.09375 126.96875 149.050781 C 126.96875 145.007812 130.242188 141.734375 134.285156 141.734375 C 138.320312 141.734375 141.597656 145.007812 141.597656 149.050781 " fill-opacity="1" fill-rule="nonzero"/><path fill="#ff914d" d="M 340.378906 232.648438 C 340.378906 232.648438 340.214844 231.839844 339.804688 230.523438 C 339.390625 229.207031 338.722656 227.402344 337.761719 225.363281 C 337.285156 224.339844 336.746094 223.25 336.125 222.148438 C 335.519531 221.023438 334.832031 219.886719 334.097656 218.730469 C 333.367188 217.566406 332.550781 216.414062 331.722656 215.25 C 330.859375 214.113281 329.992188 212.945312 329.066406 211.835938 C 328.140625 210.71875 327.183594 209.632812 326.199219 208.597656 C 325.230469 207.554688 324.195312 206.59375 323.195312 205.65625 C 322.175781 204.746094 321.160156 203.890625 320.152344 203.113281 C 319.148438 202.335938 318.15625 201.636719 317.214844 201.015625 C 315.324219 199.769531 313.601562 198.867188 312.324219 198.292969 C 311.046875 197.714844 310.234375 197.460938 310.234375 197.460938 C 303.53125 195.328125 299.824219 188.160156 301.957031 181.457031 C 304.085938 174.75 311.25 171.042969 317.957031 173.179688 C 322.714844 174.691406 325.957031 178.75 326.683594 183.367188 C 326.683594 183.367188 326.816406 184.210938 327.183594 185.558594 C 327.558594 186.90625 328.1875 188.75 329.125 190.808594 C 329.597656 191.835938 330.132812 192.921875 330.75 194.039062 C 331.363281 195.148438 332.054688 196.28125 332.796875 197.433594 C 333.566406 198.5625 334.359375 199.734375 335.238281 200.855469 C 336.113281 201.984375 337.042969 203.097656 338.003906 204.179688 C 338.957031 205.269531 339.976562 206.300781 340.964844 207.332031 C 341.996094 208.324219 343.003906 209.3125 344.042969 210.207031 C 345.074219 211.113281 346.09375 211.96875 347.105469 212.738281 C 348.105469 213.519531 349.09375 214.226562 350.03125 214.851562 C 351.902344 216.109375 353.585938 217.050781 354.816406 217.660156 C 356.058594 218.265625 356.835938 218.558594 356.832031 218.558594 C 363.214844 220.964844 366.441406 228.089844 364.039062 234.476562 C 361.632812 240.863281 354.5 244.085938 348.121094 241.679688 C 344.042969 240.148438 341.242188 236.609375 340.378906 232.648438 " fill-opacity="1" fill-rule="nonzero"/><path fill="#ff914d" d="M 239.667969 127.167969 C 239.667969 127.167969 239.492188 126.363281 239.089844 125.042969 C 238.675781 123.726562 238.003906 121.921875 237.046875 119.878906 C 236.570312 118.859375 236.027344 117.769531 235.40625 116.660156 C 234.800781 115.542969 234.117188 114.402344 233.378906 113.25 C 232.648438 112.082031 231.832031 110.9375 231.011719 109.769531 C 230.140625 108.632812 229.277344 107.464844 228.347656 106.355469 C 227.425781 105.238281 226.464844 104.152344 225.484375 103.117188 C 224.515625 102.074219 223.476562 101.113281 222.484375 100.175781 C 221.457031 99.265625 220.445312 98.40625 219.441406 97.625 C 218.429688 96.855469 217.441406 96.15625 216.5 95.53125 C 214.609375 94.289062 212.886719 93.382812 211.605469 92.804688 C 210.332031 92.234375 209.519531 91.972656 209.519531 91.972656 C 202.8125 89.84375 199.105469 82.679688 201.242188 75.972656 C 203.375 69.269531 210.539062 65.5625 217.242188 67.695312 C 221.996094 69.207031 225.246094 73.269531 225.96875 77.882812 C 225.96875 77.882812 226.097656 78.726562 226.472656 80.078125 C 226.839844 81.429688 227.46875 83.269531 228.410156 85.328125 C 228.878906 86.355469 229.421875 87.441406 230.03125 88.558594 C 230.644531 89.671875 231.339844 90.800781 232.078125 91.953125 C 232.851562 93.082031 233.640625 94.253906 234.527344 95.371094 C 235.398438 96.503906 236.324219 97.617188 237.285156 98.699219 C 238.238281 99.789062 239.261719 100.816406 240.253906 101.851562 C 241.277344 102.847656 242.285156 103.824219 243.324219 104.726562 C 244.355469 105.632812 245.371094 106.488281 246.386719 107.257812 C 247.386719 108.039062 248.375 108.738281 249.3125 109.371094 C 251.183594 110.625 252.867188 111.570312 254.101562 112.179688 C 255.34375 112.785156 256.117188 113.078125 256.117188 113.078125 C 262.503906 115.484375 265.726562 122.609375 263.320312 128.996094 C 260.910156 135.382812 253.789062 138.605469 247.402344 136.199219 C 243.328125 134.664062 240.523438 131.128906 239.667969 127.167969 " fill-opacity="1" fill-rule="nonzero"/><path fill="#ff914d" d="M 336.265625 88.292969 C 336.265625 88.292969 335.839844 88.222656 335.171875 88.210938 C 334.496094 88.203125 333.570312 88.234375 332.535156 88.398438 C 331.5 88.558594 330.347656 88.84375 329.1875 89.261719 C 328.023438 89.671875 326.851562 90.222656 325.746094 90.886719 C 324.628906 91.523438 323.59375 92.292969 322.695312 93.132812 C 321.796875 93.972656 321.039062 94.882812 320.453125 95.765625 C 319.863281 96.636719 319.441406 97.480469 319.183594 98.132812 C 318.917969 98.765625 318.808594 99.203125 318.808594 99.203125 C 317.464844 104.769531 311.863281 108.191406 306.292969 106.847656 C 300.730469 105.503906 297.304688 99.902344 298.648438 94.335938 C 299.972656 88.839844 305.460938 85.4375 310.957031 86.636719 C 310.957031 86.636719 311.394531 86.734375 312.078125 86.769531 C 312.78125 86.828125 313.71875 86.816406 314.765625 86.667969 C 315.8125 86.523438 316.964844 86.242188 318.109375 85.804688 C 319.257812 85.363281 320.410156 84.769531 321.46875 84.046875 C 322.550781 83.34375 323.5625 82.53125 324.4375 81.664062 C 325.324219 80.800781 326.082031 79.890625 326.679688 79.03125 C 327.285156 78.171875 327.714844 77.351562 327.996094 76.742188 C 328.28125 76.136719 328.40625 75.726562 328.40625 75.726562 C 330.007812 70.570312 335.484375 67.679688 340.640625 69.28125 C 345.800781 70.882812 348.6875 76.363281 347.089844 81.523438 C 345.632812 86.207031 340.972656 89.019531 336.265625 88.292969 " fill-opacity="1" fill-rule="nonzero"/><path fill="#ff914d" d="M 217.171875 286.476562 C 217.171875 286.476562 216.839844 286.742188 216.378906 287.222656 C 215.910156 287.710938 215.304688 288.414062 214.726562 289.285156 C 214.140625 290.15625 213.570312 291.195312 213.09375 292.335938 C 212.601562 293.472656 212.214844 294.707031 211.957031 295.96875 C 211.664062 297.222656 211.539062 298.503906 211.542969 299.734375 C 211.550781 300.960938 211.710938 302.136719 211.957031 303.167969 C 212.203125 304.195312 212.53125 305.070312 212.835938 305.703125 C 213.117188 306.328125 213.367188 306.703125 213.367188 306.703125 C 216.554688 311.460938 215.273438 317.902344 210.519531 321.089844 C 205.757812 324.273438 199.3125 322.992188 196.132812 318.234375 C 192.988281 313.535156 194.199219 307.195312 198.808594 303.96875 C 198.808594 303.96875 199.179688 303.707031 199.667969 303.230469 C 200.183594 302.753906 200.8125 302.054688 201.414062 301.183594 C 202.015625 300.316406 202.589844 299.277344 203.042969 298.132812 C 203.496094 296.992188 203.839844 295.75 204.027344 294.476562 C 204.242188 293.207031 204.328125 291.914062 204.285156 290.679688 C 204.25 289.449219 204.097656 288.273438 203.867188 287.246094 C 203.644531 286.222656 203.335938 285.347656 203.078125 284.726562 C 202.824219 284.105469 202.609375 283.738281 202.609375 283.738281 C 199.898438 279.070312 201.492188 273.082031 206.164062 270.375 C 210.832031 267.660156 216.820312 269.25 219.527344 273.925781 C 221.992188 278.171875 220.898438 283.507812 217.171875 286.476562 " fill-opacity="1" fill-rule="nonzero"/><path fill="#ff914d" d="M 231.3125 51.714844 C 231.3125 51.714844 231.222656 51.203125 230.972656 50.382812 C 230.730469 49.566406 230.335938 48.433594 229.75 47.179688 C 229.167969 45.917969 228.40625 44.523438 227.496094 43.121094 C 226.585938 41.714844 225.511719 40.300781 224.347656 38.976562 C 223.203125 37.632812 221.9375 36.390625 220.65625 35.324219 C 219.371094 34.253906 218.0625 33.359375 216.851562 32.664062 C 215.644531 31.96875 214.546875 31.476562 213.714844 31.1875 C 212.90625 30.875 212.378906 30.757812 212.378906 30.757812 C 207.464844 29.679688 204.359375 24.824219 205.4375 19.917969 C 206.515625 15.007812 211.371094 11.902344 216.277344 12.980469 C 220.171875 13.832031 222.929688 17.074219 223.367188 20.828125 C 223.367188 20.828125 223.433594 21.363281 223.660156 22.199219 C 223.867188 23.050781 224.242188 24.199219 224.8125 25.46875 C 225.378906 26.746094 226.136719 28.140625 227.070312 29.527344 C 228.007812 30.910156 229.109375 32.289062 230.332031 33.570312 C 231.53125 34.859375 232.828125 36.066406 234.136719 37.113281 C 235.441406 38.167969 236.75 39.066406 237.949219 39.773438 C 239.140625 40.484375 240.222656 40.984375 241.011719 41.316406 C 241.804688 41.640625 242.304688 41.78125 242.304688 41.78125 C 246.953125 43.097656 249.65625 47.925781 248.347656 52.578125 C 247.03125 57.226562 242.195312 59.929688 237.550781 58.621094 C 234.214844 57.675781 231.878906 54.914062 231.3125 51.714844 " fill-opacity="1" fill-rule="nonzero"/><path fill="#ff914d" d="M 220.699219 173.878906 C 220.699219 173.878906 220.371094 174.984375 219.941406 176.90625 C 219.523438 178.828125 219.027344 181.566406 218.628906 184.839844 C 218.429688 186.476562 218.242188 188.246094 218.109375 190.113281 C 217.957031 191.984375 217.863281 193.953125 217.800781 195.988281 C 217.722656 198.019531 217.726562 200.117188 217.726562 202.25 C 217.78125 204.378906 217.808594 206.542969 217.941406 208.699219 C 218.03125 210.855469 218.214844 213.011719 218.40625 215.128906 C 218.613281 217.253906 218.875 219.332031 219.160156 221.34375 C 219.472656 223.351562 219.808594 225.292969 220.183594 227.128906 C 220.558594 228.972656 220.960938 230.703125 221.375 232.300781 C 222.203125 235.5 223.09375 238.148438 223.808594 239.996094 C 224.519531 241.847656 225.03125 242.894531 225.03125 242.894531 C 227.890625 248.710938 225.484375 255.738281 219.671875 258.585938 C 213.855469 261.441406 206.835938 259.039062 203.980469 253.226562 C 202.554688 250.324219 202.453125 247.089844 203.417969 244.253906 C 203.417969 244.253906 203.796875 243.148438 204.273438 241.226562 C 204.746094 239.300781 205.300781 236.558594 205.722656 233.285156 C 205.929688 231.648438 206.117188 229.878906 206.257812 228.007812 C 206.402344 226.136719 206.492188 224.171875 206.550781 222.136719 C 206.585938 220.105469 206.585938 218.007812 206.519531 215.878906 C 206.441406 213.753906 206.359375 211.589844 206.175781 209.4375 C 206.03125 207.28125 205.796875 205.128906 205.585938 203.011719 C 205.3125 200.902344 205.058594 198.820312 204.726562 196.808594 C 204.40625 194.800781 204.066406 192.855469 203.679688 191.023438 C 203.316406 189.183594 202.910156 187.449219 202.507812 185.847656 C 201.703125 182.652344 200.867188 180 200.210938 178.148438 C 199.546875 176.292969 199.082031 175.238281 199.082031 175.238281 C 196.511719 169.410156 199.152344 162.59375 204.984375 160.023438 C 210.820312 157.453125 217.628906 160.097656 220.203125 165.929688 C 221.351562 168.539062 221.453125 171.347656 220.699219 173.878906 " fill-opacity="1" fill-rule="nonzero"/><path fill="#ff914d" d="M 288.617188 231.394531 C 288.617188 231.394531 288.503906 230.457031 288.183594 228.902344 C 287.855469 227.351562 287.292969 225.191406 286.453125 222.703125 C 286.03125 221.457031 285.554688 220.128906 284.992188 218.75 C 284.449219 217.359375 283.816406 215.9375 283.132812 214.480469 C 282.464844 213.011719 281.699219 211.546875 280.925781 210.050781 C 280.109375 208.582031 279.292969 207.082031 278.40625 205.628906 C 277.53125 204.164062 276.609375 202.726562 275.664062 201.339844 C 274.726562 199.945312 273.71875 198.632812 272.75 197.351562 C 271.746094 196.097656 270.75 194.894531 269.753906 193.785156 C 268.761719 192.683594 267.78125 191.664062 266.839844 190.742188 C 264.953125 188.902344 263.214844 187.472656 261.925781 186.523438 C 260.632812 185.574219 259.800781 185.085938 259.800781 185.085938 C 253.964844 181.667969 252.003906 174.175781 255.421875 168.339844 C 258.839844 162.507812 266.332031 160.546875 272.167969 163.964844 C 275.757812 166.066406 277.878906 169.789062 278.1875 173.640625 C 278.1875 173.640625 278.257812 174.597656 278.539062 176.183594 C 278.820312 177.761719 279.335938 179.957031 280.152344 182.457031 C 280.5625 183.703125 281.046875 185.039062 281.597656 186.421875 C 282.152344 187.800781 282.792969 189.222656 283.476562 190.675781 C 284.195312 192.113281 284.929688 193.597656 285.765625 195.050781 C 286.59375 196.515625 287.476562 197.976562 288.394531 199.410156 C 289.316406 200.847656 290.300781 202.242188 291.257812 203.617188 C 292.257812 204.972656 293.234375 206.308594 294.253906 207.558594 C 295.257812 208.8125 296.265625 210.011719 297.269531 211.109375 C 298.253906 212.222656 299.238281 213.246094 300.167969 214.164062 C 302.03125 216.023438 303.71875 217.480469 304.96875 218.460938 C 306.21875 219.433594 307.007812 219.945312 307.007812 219.945312 C 312.535156 223.550781 314.097656 230.957031 310.492188 236.484375 C 306.890625 242.015625 299.488281 243.574219 293.953125 239.972656 C 290.890625 237.976562 289.042969 234.757812 288.617188 231.394531 " fill-opacity="1" fill-rule="nonzero"/><path fill="#ff914d" d="M 332.679688 270.058594 C 332.679688 270.058594 331.890625 270.296875 330.617188 270.8125 C 329.347656 271.339844 327.609375 272.160156 325.664062 273.289062 C 324.695312 273.851562 323.660156 274.480469 322.617188 275.195312 C 321.550781 275.890625 320.484375 276.671875 319.402344 277.503906 C 318.308594 278.332031 317.238281 279.238281 316.152344 280.164062 C 315.097656 281.117188 314.015625 282.078125 312.996094 283.097656 C 311.964844 284.113281 310.972656 285.160156 310.027344 286.222656 C 309.074219 287.277344 308.214844 288.390625 307.375 289.464844 C 306.558594 290.5625 305.796875 291.644531 305.113281 292.707031 C 304.433594 293.777344 303.820312 294.820312 303.289062 295.816406 C 302.222656 297.800781 301.476562 299.589844 301.015625 300.910156 C 300.5625 302.230469 300.375 303.0625 300.375 303.0625 C 298.847656 309.9375 292.039062 314.269531 285.167969 312.742188 C 278.289062 311.214844 273.953125 304.40625 275.480469 297.527344 C 276.570312 292.640625 280.339844 289.035156 284.894531 287.90625 C 284.894531 287.90625 285.722656 287.707031 287.03125 287.222656 C 288.34375 286.734375 290.121094 285.953125 292.078125 284.84375 C 293.058594 284.289062 294.09375 283.652344 295.144531 282.953125 C 296.195312 282.246094 297.261719 281.460938 298.34375 280.621094 C 299.394531 279.757812 300.488281 278.871094 301.523438 277.898438 C 302.566406 276.933594 303.589844 275.917969 304.585938 274.871094 C 305.578125 273.824219 306.515625 272.722656 307.449219 271.648438 C 308.351562 270.542969 309.238281 269.453125 310.039062 268.347656 C 310.847656 267.242188 311.605469 266.15625 312.28125 265.082031 C 312.96875 264.019531 313.582031 262.972656 314.117188 261.988281 C 315.207031 260.019531 315.988281 258.265625 316.484375 256.988281 C 316.976562 255.703125 317.199219 254.902344 317.199219 254.902344 C 319.03125 248.328125 325.84375 244.476562 332.421875 246.300781 C 339 248.132812 342.855469 254.949219 341.023438 261.53125 C 339.855469 265.738281 336.566406 268.851562 332.679688 270.058594 " fill-opacity="1" fill-rule="nonzero"/><path fill="#ff914d" d="M 253.058594 270.691406 C 253.058594 270.691406 253.226562 269.824219 253.382812 268.351562 C 253.527344 266.882812 253.628906 264.816406 253.566406 262.386719 C 253.535156 261.171875 253.472656 259.867188 253.34375 258.503906 C 253.234375 257.128906 253.058594 255.703125 252.835938 254.234375 C 252.636719 252.761719 252.339844 251.265625 252.050781 249.746094 C 251.703125 248.238281 251.375 246.695312 250.960938 245.183594 C 250.558594 243.667969 250.109375 242.160156 249.617188 240.695312 C 249.140625 239.226562 248.570312 237.804688 248.027344 236.429688 C 247.445312 235.066406 246.855469 233.757812 246.238281 232.53125 C 245.617188 231.304688 244.984375 230.15625 244.363281 229.113281 C 243.117188 227.015625 241.890625 225.328125 240.941406 224.171875 C 239.992188 223.011719 239.347656 222.378906 239.347656 222.378906 C 234.425781 217.558594 234.34375 209.660156 239.164062 204.738281 C 243.984375 199.816406 251.882812 199.734375 256.804688 204.554688 C 260.070312 207.753906 261.199219 212.324219 260.183594 216.464844 C 260.183594 216.464844 259.964844 217.339844 259.765625 218.824219 C 259.574219 220.308594 259.410156 222.394531 259.449219 224.832031 C 259.472656 226.046875 259.539062 227.351562 259.65625 228.726562 C 259.773438 230.089844 259.960938 231.515625 260.183594 232.984375 C 260.4375 234.4375 260.699219 235.941406 261.070312 237.445312 C 261.417969 238.953125 261.828125 240.46875 262.28125 241.96875 C 262.730469 243.472656 263.253906 244.957031 263.753906 246.421875 C 264.304688 247.867188 264.839844 249.296875 265.4375 250.65625 C 266.027344 252.019531 266.625 253.328125 267.253906 254.550781 C 267.859375 255.78125 268.496094 256.929688 269.105469 257.976562 C 270.324219 260.078125 271.503906 261.78125 272.398438 262.953125 C 273.300781 264.125 273.894531 264.769531 273.894531 264.769531 C 278.445312 269.699219 278.140625 277.382812 273.210938 281.929688 C 268.289062 286.476562 260.601562 286.167969 256.058594 281.246094 C 253.347656 278.3125 252.375 274.332031 253.058594 270.691406 " fill-opacity="1" fill-rule="nonzero"/><path fill="#ff914d" d="M 259.75 325.5625 C 259.75 325.5625 259.238281 325.601562 258.402344 325.761719 C 257.5625 325.917969 256.398438 326.183594 255.066406 326.621094 C 253.738281 327.046875 252.238281 327.632812 250.691406 328.351562 C 249.144531 329.070312 247.554688 329.929688 246.027344 330.890625 C 245.253906 331.355469 244.515625 331.867188 243.789062 332.375 C 243.0625 332.890625 242.371094 333.433594 241.714844 333.96875 C 240.40625 335.058594 239.253906 336.183594 238.320312 337.234375 C 237.386719 338.28125 236.671875 339.246094 236.203125 339.984375 C 235.726562 340.699219 235.496094 341.171875 235.496094 341.171875 C 233.675781 344.9375 229.144531 346.515625 225.378906 344.691406 C 221.609375 342.871094 220.035156 338.335938 221.855469 334.570312 C 223.136719 331.929688 225.753906 330.371094 228.5 330.296875 C 228.5 330.296875 229.027344 330.285156 229.875 330.144531 C 230.734375 330.03125 231.910156 329.773438 233.25 329.355469 C 234.59375 328.945312 236.097656 328.367188 237.628906 327.621094 C 238.390625 327.246094 239.167969 326.839844 239.9375 326.394531 C 240.699219 325.941406 241.472656 325.480469 242.21875 324.96875 C 243.722656 323.972656 245.167969 322.886719 246.460938 321.777344 C 247.757812 320.671875 248.90625 319.542969 249.847656 318.507812 C 250.792969 317.480469 251.519531 316.523438 252.011719 315.828125 C 252.503906 315.136719 252.75 314.6875 252.75 314.6875 C 254.714844 311.144531 259.179688 309.859375 262.730469 311.820312 C 266.273438 313.785156 267.554688 318.257812 265.589844 321.800781 C 264.359375 324.023438 262.097656 325.355469 259.75 325.5625 " fill-opacity="1" fill-rule="nonzero"/><path fill="#ff914d" d="M 357.011719 151.457031 C 357.011719 151.457031 356.09375 151.09375 354.480469 150.609375 C 352.875 150.132812 350.582031 149.558594 347.839844 149.058594 C 346.464844 148.8125 344.984375 148.574219 343.414062 148.386719 C 341.84375 148.179688 340.191406 148.019531 338.484375 147.898438 C 336.777344 147.761719 335.011719 147.699219 333.226562 147.636719 C 331.4375 147.625 329.617188 147.597656 327.804688 147.660156 C 325.988281 147.6875 324.175781 147.808594 322.394531 147.933594 C 320.613281 148.074219 318.863281 148.273438 317.164062 148.503906 C 315.472656 148.753906 313.839844 149.03125 312.289062 149.34375 C 310.746094 149.671875 309.28125 150.019531 307.933594 150.390625 C 305.234375 151.117188 303 151.929688 301.433594 152.585938 C 299.875 153.246094 298.980469 153.726562 298.980469 153.726562 C 293.117188 156.914062 285.785156 154.746094 282.597656 148.886719 C 279.410156 143.023438 281.578125 135.6875 287.441406 132.5 C 290.851562 130.644531 294.832031 130.628906 298.136719 132.082031 C 298.136719 132.082031 299.0625 132.496094 300.671875 133.03125 C 302.28125 133.566406 304.574219 134.195312 307.316406 134.71875 C 308.691406 134.972656 310.179688 135.210938 311.746094 135.410156 C 313.316406 135.609375 314.964844 135.757812 316.671875 135.875 C 318.382812 135.96875 320.144531 136.03125 321.929688 136.03125 C 323.71875 136.015625 325.53125 135.996094 327.34375 135.878906 C 329.160156 135.804688 330.964844 135.632812 332.75 135.480469 C 334.53125 135.273438 336.277344 135.078125 337.972656 134.8125 C 339.667969 134.550781 341.300781 134.269531 342.847656 133.9375 C 344.398438 133.628906 345.859375 133.273438 347.203125 132.917969 C 349.902344 132.210938 352.144531 131.457031 353.707031 130.855469 C 355.273438 130.246094 356.164062 129.8125 356.164062 129.8125 C 362.042969 126.960938 369.113281 129.414062 371.972656 135.285156 C 374.820312 141.164062 372.371094 148.234375 366.496094 151.089844 C 363.417969 152.582031 359.972656 152.605469 357.011719 151.457031 " fill-opacity="1" fill-rule="nonzero"/><path fill="#ff914d" d="M 265.867188 100.546875 C 265.867188 100.546875 266.257812 99.597656 266.8125 97.933594 C 267.351562 96.269531 268.011719 93.890625 268.617188 91.039062 C 268.917969 89.609375 269.214844 88.066406 269.464844 86.429688 C 269.734375 84.796875 269.953125 83.074219 270.144531 81.289062 C 270.351562 79.507812 270.472656 77.667969 270.613281 75.796875 C 270.691406 73.917969 270.792969 72.019531 270.796875 70.117188 C 270.84375 68.21875 270.792969 66.3125 270.738281 64.441406 C 270.664062 62.570312 270.53125 60.730469 270.375 58.945312 C 270.1875 57.164062 269.976562 55.4375 269.71875 53.804688 C 269.460938 52.171875 269.164062 50.625 268.847656 49.199219 C 268.222656 46.347656 267.503906 43.96875 266.910156 42.304688 C 266.3125 40.640625 265.859375 39.691406 265.859375 39.691406 C 263.042969 33.707031 265.605469 26.566406 271.585938 23.75 C 277.570312 20.929688 284.703125 23.492188 287.523438 29.472656 C 289.101562 32.820312 288.972656 36.578125 287.523438 39.691406 C 287.523438 39.691406 287.078125 40.640625 286.476562 42.304688 C 285.886719 43.96875 285.160156 46.347656 284.535156 49.199219 C 284.226562 50.625 283.929688 52.171875 283.667969 53.804688 C 283.410156 55.4375 283.195312 57.164062 283.015625 58.945312 C 282.851562 60.730469 282.71875 62.570312 282.648438 64.441406 C 282.589844 66.3125 282.542969 68.21875 282.589844 70.117188 C 282.597656 72.019531 282.699219 73.917969 282.777344 75.796875 C 282.910156 77.667969 283.039062 79.507812 283.242188 81.289062 C 283.433594 83.074219 283.648438 84.796875 283.921875 86.429688 C 284.171875 88.066406 284.46875 89.609375 284.773438 91.039062 C 285.371094 93.890625 286.039062 96.269531 286.578125 97.933594 C 287.125 99.597656 287.523438 100.546875 287.523438 100.546875 C 290.027344 106.527344 287.203125 113.40625 281.222656 115.902344 C 275.238281 118.40625 268.363281 115.582031 265.867188 109.601562 C 264.605469 106.597656 264.707031 103.332031 265.867188 100.546875 " fill-opacity="1" fill-rule="nonzero"/><path fill="#ff914d" d="M 335.632812 174.558594 C 335.632812 181.726562 341.4375 187.535156 348.609375 187.535156 C 355.773438 187.535156 361.582031 181.726562 361.582031 174.558594 C 361.582031 167.394531 355.773438 161.585938 348.609375 161.585938 C 341.4375 161.585938 335.632812 167.394531 335.632812 174.558594 " fill-opacity="1" fill-rule="nonzero"/><path fill="#ff914d" d="M 236.789062 17.351562 C 236.789062 24.519531 242.601562 30.324219 249.765625 30.324219 C 256.933594 30.324219 262.738281 24.519531 262.738281 17.351562 C 262.738281 10.1875 256.933594 4.378906 249.765625 4.378906 C 242.601562 4.378906 236.789062 10.1875 236.789062 17.351562 " fill-opacity="1" fill-rule="nonzero"/><path fill="#ff914d" d="M 323.890625 111.148438 C 323.890625 118.3125 329.699219 124.121094 336.871094 124.121094 C 344.035156 124.121094 349.84375 118.3125 349.84375 111.148438 C 349.84375 103.976562 344.035156 98.171875 336.871094 98.171875 C 329.699219 98.171875 323.890625 103.976562 323.890625 111.148438 " fill-opacity="1" fill-rule="nonzero"/><path fill="#ff914d" d="M 228.011719 292.359375 C 228.011719 299.527344 233.816406 305.332031 240.984375 305.332031 C 248.148438 305.332031 253.960938 299.527344 253.960938 292.359375 C 253.960938 285.195312 248.148438 279.386719 240.984375 279.386719 C 233.816406 279.386719 228.011719 285.195312 228.011719 292.359375 " fill-opacity="1" fill-rule="nonzero"/><path fill="#ff914d" d="M 203.433594 119.773438 C 203.433594 126.941406 204.890625 137.09375 212.058594 137.09375 C 219.222656 137.09375 225.03125 131.285156 225.03125 124.121094 C 225.03125 116.953125 219.222656 111.148438 212.058594 111.148438 C 204.890625 111.148438 203.433594 112.609375 203.433594 119.773438 " fill-opacity="1" fill-rule="nonzero"/><path fill="#ff914d" d="M 279.765625 263.09375 C 279.765625 267.132812 283.039062 270.410156 287.082031 270.410156 C 291.117188 270.410156 294.398438 267.132812 294.398438 263.09375 C 294.398438 259.054688 291.117188 255.777344 287.082031 255.777344 C 283.039062 255.777344 279.765625 259.054688 279.765625 263.09375 " fill-opacity="1" fill-rule="nonzero"/><path fill="#ff914d" d="M 356.566406 208.007812 C 356.566406 212.046875 359.839844 215.324219 363.882812 215.324219 C 367.921875 215.324219 371.199219 212.046875 371.199219 208.007812 C 371.199219 203.96875 367.921875 200.691406 363.882812 200.691406 C 359.839844 200.691406 356.566406 203.96875 356.566406 208.007812 " fill-opacity="1" fill-rule="nonzero"/><path fill="#ff914d" d="M 317.625 292.359375 C 317.625 296.402344 320.898438 299.679688 324.941406 299.679688 C 328.980469 299.679688 332.257812 296.402344 332.257812 292.359375 C 332.257812 288.320312 328.980469 285.042969 324.941406 285.042969 C 320.898438 285.042969 317.625 288.320312 317.625 292.359375 " fill-opacity="1" fill-rule="nonzero"/><path fill="#ff914d" d="M 267.445312 231.699219 C 267.445312 235.742188 270.726562 239.015625 274.761719 239.015625 C 278.804688 239.015625 282.078125 235.742188 282.078125 231.699219 C 282.078125 227.660156 278.804688 224.382812 274.761719 224.382812 C 270.726562 224.382812 267.445312 227.660156 267.445312 231.699219 " fill-opacity="1" fill-rule="nonzero"/><path fill="#ff914d" d="M 301.472656 124.121094 C 301.472656 128.164062 304.746094 131.4375 308.789062 131.4375 C 312.832031 131.4375 316.105469 128.164062 316.105469 124.121094 C 316.105469 120.078125 312.832031 116.804688 308.789062 116.804688 C 304.746094 116.804688 301.472656 120.078125 301.472656 124.121094 " fill-opacity="1" fill-rule="nonzero"/><path fill="#ff914d" d="M 301.472656 69.8125 C 301.472656 73.855469 304.746094 77.128906 308.789062 77.128906 C 312.832031 77.128906 316.105469 73.855469 316.105469 69.8125 C 316.105469 65.769531 312.832031 62.496094 308.789062 62.496094 C 304.746094 62.496094 301.472656 65.769531 301.472656 69.8125 " fill-opacity="1" fill-rule="nonzero"/><path fill="#ff914d" d="M 299.222656 44.472656 C 299.222656 48.511719 302.503906 51.789062 306.539062 51.789062 C 310.582031 51.789062 313.855469 48.511719 313.855469 44.472656 C 313.855469 40.429688 310.582031 37.152344 306.539062 37.152344 C 302.503906 37.152344 299.222656 40.429688 299.222656 44.472656 " fill-opacity="1" fill-rule="nonzero"/><path fill="#ff914d" d="M 240.574219 84.933594 C 240.574219 88.972656 243.847656 92.25 247.890625 92.25 C 251.929688 92.25 255.210938 88.972656 255.210938 84.933594 C 255.210938 80.890625 251.929688 77.613281 247.890625 77.613281 C 243.847656 77.613281 240.574219 80.890625 240.574219 84.933594 " fill-opacity="1" fill-rule="nonzero"/><path fill="#ff914d" d="M 249.308594 64.976562 C 249.308594 69.019531 252.582031 72.292969 256.625 72.292969 C 260.660156 72.292969 263.941406 69.019531 263.941406 64.976562 C 263.941406 60.941406 260.660156 57.660156 256.625 57.660156 C 252.582031 57.660156 249.308594 60.941406 249.308594 64.976562 " fill-opacity="1" fill-rule="nonzero"/><path fill="#ff914d" d="M 269.375 330.710938 C 269.375 334.75 272.65625 338.027344 276.691406 338.027344 C 280.734375 338.027344 284.007812 334.75 284.007812 330.710938 C 284.007812 326.667969 280.734375 323.394531 276.691406 323.394531 C 272.65625 323.394531 269.375 326.667969 269.375 330.710938 " fill-opacity="1" fill-rule="nonzero"/><path fill="#ff914d" d="M 226.351562 179.363281 C 226.351562 183.402344 229.625 186.683594 233.664062 186.683594 C 237.707031 186.683594 240.984375 183.402344 240.984375 179.363281 C 240.984375 175.324219 237.707031 172.042969 233.664062 172.042969 C 229.625 172.042969 226.351562 175.324219 226.351562 179.363281 " fill-opacity="1" fill-rule="nonzero"/><path fill="#ff914d" d="M 233.664062 153.398438 C 233.664062 157.441406 236.945312 160.714844 240.984375 160.714844 C 245.023438 160.714844 248.300781 157.441406 248.300781 153.398438 C 248.300781 149.355469 245.023438 146.082031 240.984375 146.082031 C 236.945312 146.082031 233.664062 149.355469 233.664062 153.398438 " fill-opacity="1" fill-rule="nonzero"/></svg>